<?xml version="1.0" standalone="no"?>
<!DOCTYPE svg PUBLIC "-//W3C//DTD SVG 20010904//EN"
 "http://www.w3.org/TR/2001/REC-SVG-20010904/DTD/svg10.dtd">
<svg version="1.0" xmlns="http://www.w3.org/2000/svg"
 width="110.000000pt" height="108.000000pt" viewBox="0 0 110.000000 108.000000"
 preserveAspectRatio="xMidYMid meet">
<metadata>
Created by potrace 1.10, written by Peter Selinger 2001-2011
</metadata>
<g transform="translate(0.000000,108.000000) scale(0.050000,-0.050000)"
fill="#000000" stroke="none">
<path d="M29 2115 c-5 -14 -7 -237 -4 -495 l5 -470 495 -5 494 -6 11 46 c6 25
9 248 6 495 l-6 450 -495 5 c-390 5 -498 0 -506 -20z m707 -160 c126 -83 164
-185 164 -439 0 -156 -7 -217 -28 -234 -43 -36 -92 26 -92 118 l0 78 -241 6
c-269 7 -279 3 -279 -116 0 -87 -30 -119 -82 -87 -57 36 -27 473 39 569 120
175 345 220 519 105z"/>
<path d="M420 1886 c-98 -36 -187 -200 -139 -257 20 -24 71 -29 257 -25 l232
6 6 55 c18 156 -187 283 -356 221z"/>
<path d="M1156 1665 c-3 -261 -3 -486 1 -500 6 -20 116 -25 500 -20 l493 5 5
495 6 495 -500 0 -499 0 -6 -475z m771 410 c-25 -40 18 -99 65 -90 65 13 61
-13 -10 -64 -75 -53 -84 -52 -148 15 -60 62 -69 114 -25 138 36 20 130 21 118
1z m-221 -197 c65 -29 114 -119 114 -208 l0 -74 62 53 c62 52 118 44 118 -16
0 -35 -205 -233 -241 -233 -42 0 -245 213 -234 245 14 43 77 40 126 -6 58 -55
85 -17 54 75 -18 55 -22 56 -193 62 -179 6 -212 23 -185 94 14 37 303 43 379
8z m-306 -274 c0 -20 -11 -47 -24 -60 -28 -28 -96 -32 -96 -6 0 9 20 23 45 31
31 9 36 17 18 25 -23 9 -23 14 0 28 41 26 57 22 57 -18z m51 -185 c31 -34 32
-45 10 -58 -42 -26 -81 -2 -81 51 0 59 22 61 71 7z"/>
<path d="M1821 2035 c1 -50 79 -123 104 -98 17 17 13 30 -16 52 -21 16 -30 30
-19 31 22 1 -31 39 -55 40 -8 0 -15 -11 -14 -25z"/>
<path d="M29 995 c-5 -14 -7 -237 -4 -495 l5 -470 500 0 500 0 6 450 c3 248 0
470 -6 495 l-11 45 -490 0 c-378 0 -492 -6 -500 -25z m782 -204 c62 -61 -9
-117 -74 -58 -46 42 -47 61 -2 73 19 5 38 10 41 12 4 1 20 -11 35 -27z m-253
-139 c137 -138 106 -258 -32 -129 l-46 44 0 -71 c0 -98 28 -113 211 -120 155
-6 159 -7 159 -56 0 -49 -4 -50 -167 -56 -227 -8 -323 66 -323 247 l0 53 -62
-53 c-62 -52 -118 -44 -118 16 0 34 205 233 240 233 17 0 80 -49 138 -108z
m310 -84 c18 -7 32 -31 32 -53 0 -39 -2 -40 -39 -6 -21 19 -48 29 -60 22 -23
-15 -29 14 -8 36 17 16 35 16 75 1z m-645 -310 c30 -16 47 -16 63 0 37 37 53
24 42 -33 -14 -69 57 -148 96 -109 37 37 87 32 57 -5 -51 -61 -102 -58 -173
11 -43 41 -68 55 -68 37 -1 -24 -4 -24 -18 -2 -9 14 -24 25 -33 24 -9 -1 -20
21 -24 48 -7 57 0 61 58 29z"/>
<path d="M1157 995 c-4 -14 -4 -239 -1 -500 l6 -475 499 0 500 0 -6 495 -5
495 -493 5 c-384 5 -494 0 -500 -20z m554 -170 c25 -114 21 -112 158 -99 94 9
133 5 150 -14 38 -46 -2 -105 -65 -94 -30 5 -94 -40 -94 -66 0 -14 -23 -69
-51 -122 -62 -116 -48 -140 101 -164 122 -20 169 -126 56 -126 -81 0 -210 39
-251 75 -33 29 -44 28 -129 -15 -125 -62 -275 -78 -293 -30 -21 53 18 84 119
95 135 15 165 53 111 141 -81 130 -17 188 80 72 l57 -68 40 47 c22 26 40 75
40 108 l0 60 -202 -9 c-210 -10 -271 8 -245 75 13 34 21 36 177 38 113 1 120
4 126 51 10 83 21 100 63 100 28 0 44 -17 52 -55z"/>
</g>
</svg>
