<svg version="1.1" id="Layer_1" xmlns="http://www.w3.org/2000/svg" xmlns:xlink="http://www.w3.org/1999/xlink" x="0px" y="0px"
	 width="100%" viewBox="0 0 110 108" enable-background="new 0 0 110 108" xml:space="preserve">
<path fill="#F5F7F6" opacity="1.000000" stroke="none" 
	d="
M51.000000,1.000000 
	C53.700630,1.000000 56.401260,1.000000 59.555096,1.241748 
	C60.008301,1.483496 59.958454,1.964488 59.961449,1.993038 
	C59.964443,2.021588 60.020519,2.033897 59.665268,2.192439 
	C59.126144,11.250815 58.942268,20.150650 58.614563,29.426292 
	C58.358986,30.869852 58.247238,31.937609 57.763119,32.972198 
	C55.950066,32.625591 54.509377,32.312149 52.963837,31.540049 
	C52.849247,23.134565 52.933071,15.185699 52.759888,7.242434 
	C52.719727,5.400293 51.802845,3.577266 51.271778,1.537831 
	C51.254177,1.330219 51.000000,1.000000 51.000000,1.000000 
z"/>
<path fill="#FEFEFE" opacity="1.000000" stroke="none" 
	d="
M60.000000,109.000000 
	C57.957684,109.000000 55.915363,109.000000 53.341248,108.570076 
	C52.725700,107.858780 52.641960,107.577408 52.632690,106.884033 
	C52.822403,99.638618 52.937641,92.805206 53.292404,85.821106 
	C55.082432,85.776848 56.632938,85.883286 58.278339,86.451241 
	C58.597336,93.604630 58.821438,100.296501 59.043304,107.271088 
	C59.360138,107.704071 59.679203,107.854340 59.946045,108.012390 
	C59.893826,108.020172 59.877068,108.124435 59.909534,108.343079 
	C59.942001,108.561729 60.000000,109.000000 60.000000,109.000000 
z"/>
<path fill="#CED7D3" opacity="1.000000" stroke="none" 
	d="
M107.000000,1.000000 
	C108.322227,1.000000 109.644455,1.000000 111.000000,1.000000 
	C111.000000,17.020882 111.000000,33.041782 110.714394,49.521515 
	C110.049675,50.013268 109.670563,50.046188 109.233032,49.679802 
	C108.934593,48.014137 108.475357,46.745472 108.488602,45.481758 
	C108.616058,33.320580 108.823120,21.160238 109.073090,8.601211 
	C108.764336,6.332366 108.389877,4.461967 107.851448,2.330591 
	C107.526970,1.941330 107.366463,1.813044 107.201324,1.499475 
	C107.196701,1.314191 107.000000,1.000000 107.000000,1.000000 
z"/>
<path fill="#CED7D3" opacity="1.000000" stroke="none" 
	d="
M111.000000,60.000000 
	C111.000000,75.333336 110.933090,90.667252 111.067055,105.999413 
	C111.088921,108.502380 110.498802,109.498802 107.588402,108.835686 
	C107.176804,108.671371 107.217056,108.300377 107.572388,108.103920 
	C108.285591,105.271645 108.643456,102.635818 109.066948,99.568146 
	C109.208488,86.063606 109.284393,72.990929 109.634766,59.929031 
	C110.272827,59.959881 110.636414,59.979942 111.000000,60.000000 
z"/>
<path fill="#FEFEFE" opacity="1.000000" stroke="none" 
	d="
M1.000000,60.000000 
	C1.000000,56.637897 1.000000,53.275799 1.207021,49.516949 
	C1.414043,49.120201 1.841618,49.064888 1.948331,49.450901 
	C3.321470,50.596928 4.550889,51.920708 5.861554,52.006741 
	C9.220121,52.227196 12.614805,51.897415 16.236891,51.960266 
	C16.638556,52.249912 16.798376,52.366940 16.978903,52.847488 
	C17.369349,54.658905 17.739088,56.106800 17.670383,57.636009 
	C14.132817,57.767006 11.003499,57.572926 7.945152,57.951782 
	C5.894538,58.205795 3.944577,59.272339 1.712184,59.981506 
	C1.474790,59.987698 1.000000,60.000000 1.000000,60.000000 
z"/>
<path fill="#FEFEFE" opacity="1.000000" stroke="none" 
	d="
M111.000000,59.545891 
	C110.636414,59.979942 110.272827,59.959881 109.423630,59.575230 
	C105.302139,58.665630 101.666252,58.120625 98.040596,57.244972 
	C99.044594,55.438076 100.038361,53.961826 101.448776,52.376915 
	C103.590645,52.251106 105.315865,52.233959 107.229446,52.416992 
	C107.931870,52.057026 108.445923,51.496887 109.018883,50.713074 
	C109.077789,50.489403 109.291451,50.079105 109.291451,50.079105 
	C109.670563,50.046188 110.049675,50.013268 110.714394,49.990173 
	C111.000000,53.030594 111.000000,56.061188 111.000000,59.545891 
z"/>
<path fill="#839C92" opacity="1.000000" stroke="none" 
	d="
M51.000000,109.000000 
	C35.320389,109.000000 19.640703,109.018074 3.961327,108.957153 
	C2.972995,108.953323 1.987055,108.333328 1.291427,107.512268 
	C1.777305,107.025826 1.971758,107.027107 2.536181,107.192047 
	C4.864667,107.576996 6.821577,107.973549 8.781956,107.991508 
	C22.941187,108.121277 37.101124,108.174461 51.247871,108.457146 
	C51.234905,108.662384 51.000000,109.000000 51.000000,109.000000 
z"/>
<path fill="#839C92" opacity="1.000000" stroke="none" 
	d="
M50.531342,1.000000 
	C51.000000,1.000000 51.254177,1.330219 50.786186,1.618157 
	C40.875107,1.957877 31.432013,2.009658 21.522614,2.033658 
	C14.794853,2.322673 8.533398,2.639469 1.953861,2.964407 
	C1.423853,2.981699 1.211926,2.990849 1.000000,3.000000 
	C0.390511,-0.025804 2.686968,1.036136 3.957645,1.032047 
	C19.325867,0.982596 34.694302,1.000000 50.531342,1.000000 
z"/>
<path fill="#C6D2CD" opacity="1.000000" stroke="none" 
	d="
M2.166210,107.028389 
	C1.971758,107.027107 1.777305,107.025826 1.291427,107.012268 
	C1.000000,91.645775 1.000000,76.291542 1.000000,60.468658 
	C1.000000,60.000000 1.474790,59.987698 1.766022,60.449280 
	C2.093573,76.283371 2.129892,91.655876 2.166210,107.028389 
z"/>
<path fill="#839C92" opacity="1.000000" stroke="none" 
	d="
M107.217056,108.300369 
	C107.217056,108.300377 107.176804,108.671371 107.088402,108.835686 
	C91.645775,109.000000 76.291542,109.000000 60.468658,109.000000 
	C60.000000,109.000000 59.942001,108.561729 60.384346,108.285843 
	C76.290146,108.106766 91.753601,108.203568 107.217056,108.300369 
z"/>
<path fill="#839C92" opacity="1.000000" stroke="none" 
	d="
M106.531342,1.000000 
	C107.000000,1.000000 107.196701,1.314191 106.789436,1.601071 
	C105.259949,1.958471 104.137726,2.028990 102.586288,2.063950 
	C100.434425,2.038818 98.711777,2.049246 96.521759,2.034617 
	C84.022415,1.994536 71.990433,1.979512 59.958454,1.964488 
	C59.958454,1.964488 60.008301,1.483496 60.004150,1.241748 
	C75.354225,1.000000 90.708458,1.000000 106.531342,1.000000 
z"/>
<path fill="#C6D2CD" opacity="1.000000" stroke="none" 
	d="
M1.000000,3.468657 
	C1.211926,2.990849 1.423853,2.981699 1.874276,3.432412 
	C2.022388,18.949814 1.932003,34.007351 1.841618,49.064888 
	C1.841618,49.064888 1.414043,49.120201 1.207021,49.060101 
	C1.000000,33.979103 1.000000,18.958210 1.000000,3.468657 
z"/>
<path fill="#F3F5F4" opacity="1.000000" stroke="none" 
	d="
M51.333336,109.000000 
	C51.000000,109.000000 51.234905,108.662384 51.484428,108.327301 
	C52.008701,107.760155 52.283459,107.528091 52.558216,107.296036 
	C52.641960,107.577408 52.725700,107.858780 52.904724,108.570076 
	C52.555557,109.000000 52.111111,109.000000 51.333336,109.000000 
z"/>
<path fill="#4B6F61" opacity="1.000000" stroke="none" 
	d="
M59.961449,1.993038 
	C71.990433,1.979512 84.022415,1.994536 96.451065,2.393719 
	C96.035278,3.186138 95.183334,3.532051 94.418854,4.016104 
	C92.986557,4.922999 90.809105,5.668270 90.425606,6.931351 
	C90.040657,8.199170 91.101028,10.339520 92.162323,11.533764 
	C95.758316,15.580234 100.066330,14.568783 103.999542,8.998476 
	C104.000000,9.000038 103.996979,8.998883 104.414551,8.999422 
	C106.223869,8.999859 107.615631,8.999757 109.007385,8.999655 
	C108.823120,21.160238 108.616058,33.320580 108.488602,45.481758 
	C108.475357,46.745472 108.934593,48.014137 109.233032,49.679802 
	C109.291451,50.079105 109.077789,50.489403 108.733124,50.796143 
	C107.939323,51.474194 107.490204,51.845505 107.041077,52.216820 
	C105.315865,52.233959 103.590645,52.251106 101.075226,52.227997 
	C99.215858,52.224686 98.146683,52.261620 96.724548,52.158169 
	C95.885086,52.125488 95.398590,52.233196 94.545586,52.265511 
	C93.433006,52.220779 92.686943,52.251438 91.809753,52.086578 
	C91.137039,52.008827 90.595436,52.126595 89.585777,52.182365 
	C80.551888,52.107555 71.980835,52.244236 63.424980,51.945675 
	C61.863884,51.891197 60.364719,50.061787 59.159370,48.777519 
	C59.263985,43.986652 59.046192,39.469994 58.683960,34.639526 
	C58.404846,33.885601 58.270164,33.445480 58.135487,33.005363 
	C58.247238,31.937609 58.358986,30.869852 58.923882,29.231144 
	C59.591530,19.784760 59.806023,10.909328 60.020519,2.033897 
	C60.020519,2.033897 59.964443,2.021588 59.961449,1.993038 
M74.657066,14.061996 
	C73.826866,14.064076 72.872658,13.801147 72.190773,14.120208 
	C70.462852,14.928733 68.857109,15.998387 67.202438,16.963463 
	C68.892441,17.883595 70.496338,19.289452 72.292992,19.607914 
	C74.869041,20.064520 77.588928,19.644686 80.241722,19.746773 
	C85.802094,19.960749 87.137657,22.053204 85.360497,28.091089 
	C84.638618,27.545622 84.081375,26.858339 83.381523,26.649918 
	C81.817986,26.184286 80.183342,25.957434 78.577660,25.633312 
	C78.945816,27.337608 78.830803,29.407091 79.784470,30.668858 
	C81.668533,33.161606 83.935921,35.497585 86.465630,37.311504 
	C87.673027,38.177261 90.429909,38.472744 91.466431,37.685501 
	C94.479004,35.397434 97.116318,32.550869 99.588715,29.656736 
	C100.296211,28.828548 99.941673,27.093100 100.074120,25.773661 
	C98.724892,25.784611 97.281525,25.499651 96.053116,25.890415 
	C94.844292,26.274948 93.853470,27.344791 92.450806,28.337769 
	C91.138527,16.999636 88.492393,14.210597 79.578499,14.065334 
	C78.250519,14.043694 76.921890,14.061964 74.657066,14.061996 
z"/>
<path fill="#4F7265" opacity="1.000000" stroke="none" 
	d="
M21.988920,2.061440 
	C31.432013,2.009658 40.875107,1.957877 50.803787,1.825769 
	C51.802845,3.577266 52.719727,5.400293 52.759888,7.242434 
	C52.933071,15.185699 52.849247,23.134565 52.880386,31.978096 
	C52.946781,35.247356 52.991779,37.619911 52.946026,40.441860 
	C52.846550,42.859901 52.734009,44.834766 52.851467,46.795860 
	C53.072327,50.483315 51.658577,52.358707 47.737083,52.132420 
	C43.492889,51.887505 39.236073,51.861244 34.991817,51.393646 
	C35.648857,49.008659 36.298843,46.969654 36.948830,44.930649 
	C34.831573,44.315136 32.714321,43.699627 30.573242,43.077190 
	C31.552179,46.546421 32.283890,49.139496 32.609207,51.865108 
	C30.795355,52.155605 29.387894,52.313568 27.537067,52.353249 
	C23.715199,52.317963 20.336697,52.400963 16.958195,52.483967 
	C16.798376,52.366940 16.638556,52.249912 16.251202,51.585835 
	C16.296263,50.475651 16.482391,49.489162 16.854483,49.413166 
	C22.067738,48.348385 26.978859,46.931202 29.271606,41.343845 
	C29.479382,40.837505 30.256819,40.339939 30.834826,40.248100 
	C33.902012,39.760757 36.990005,39.404350 40.172134,39.297783 
	C39.897530,40.251080 39.521576,40.909180 39.121735,41.925865 
	C39.704758,42.856747 40.311672,43.429050 41.232498,44.212021 
	C44.778450,45.891438 45.856255,44.096672 45.962635,41.314507 
	C46.108063,37.510891 45.917839,33.694023 46.076820,29.891420 
	C46.420822,21.663120 43.908043,14.758940 36.573845,10.463251 
	C29.132378,6.104733 21.931744,7.791427 15.062702,11.798361 
	C14.697370,7.198947 14.587132,3.261400 20.650478,3.789427 
	C21.043486,3.823652 21.540361,2.665129 21.988920,2.061440 
z"/>
<path fill="#5E7E72" opacity="1.000000" stroke="none" 
	d="
M59.665268,2.192439 
	C59.806023,10.909328 59.591530,19.784760 59.067711,28.855339 
	C58.942268,20.150650 59.126144,11.250815 59.665268,2.192439 
z"/>
<path fill="#F3F5F4" opacity="1.000000" stroke="none" 
	d="
M53.036777,39.992470 
	C52.991779,37.619911 52.946781,35.247356 52.985237,32.436752 
	C54.509377,32.312149 55.950066,32.625591 57.763119,32.972198 
	C58.270164,33.445480 58.404846,33.885601 58.497757,35.025497 
	C58.349686,37.148914 58.243378,38.572556 57.807579,39.994469 
	C55.997658,39.992653 54.517216,39.992561 53.036777,39.992470 
z"/>
<path fill="#4C7062" opacity="1.000000" stroke="none" 
	d="
M52.632690,106.884033 
	C52.283459,107.528091 52.008701,107.760155 51.497391,108.122055 
	C37.101124,108.174461 22.941187,108.121277 8.781956,107.991508 
	C6.821577,107.973549 4.864667,107.576996 2.536181,107.192047 
	C2.129892,91.655876 2.093573,76.283371 2.003417,60.443085 
	C3.944577,59.272339 5.894538,58.205795 7.945152,57.951782 
	C11.003499,57.572926 14.132817,57.767006 17.996056,57.765068 
	C20.173313,57.747498 21.586454,57.682178 23.455299,57.734116 
	C31.668648,57.870270 39.432003,58.074646 47.181717,57.835999 
	C51.577019,57.700649 53.050678,59.435169 52.879139,63.664799 
	C52.685780,68.432549 52.976360,73.219925 52.970749,78.413231 
	C52.754925,80.217850 52.624805,81.607994 52.185490,82.939056 
	C50.324287,82.694878 48.767155,82.395607 47.226559,82.464760 
	C47.027077,82.473709 46.614124,85.215698 46.806931,85.285179 
	C48.282818,85.817055 49.881359,86.018341 51.449329,86.276535 
	C51.756901,86.327179 52.097248,86.178795 52.579407,86.081787 
	C52.736336,86.041367 53.052879,85.971802 53.052879,85.971802 
	C52.937641,92.805206 52.822403,99.638618 52.632690,106.884033 
M41.779388,95.591331 
	C42.488018,94.732964 43.196648,93.874596 43.998856,92.345039 
	C43.336998,91.875839 42.675140,91.406639 41.231800,90.678040 
	C40.144222,90.701935 39.056644,90.725830 37.499294,90.582024 
	C37.499294,90.582024 37.028095,90.745689 36.243340,90.534576 
	C34.420876,90.459335 32.595901,90.422089 30.776424,90.301727 
	C25.354429,89.943016 23.920630,87.527222 25.575293,83.110085 
	C28.251284,83.432106 30.686642,83.725166 33.122002,84.018227 
	C31.920013,81.728424 31.162327,79.011162 29.440498,77.221489 
	C21.197029,68.653221 22.616833,69.133301 14.849976,77.101822 
	C13.033350,78.965607 8.806552,80.504463 11.424246,83.998367 
	C12.095621,84.894463 16.096869,83.295753 17.449862,83.048004 
	C20.010117,87.055473 22.624456,91.147598 25.134626,95.930367 
	C25.134626,96.732239 25.134626,97.534111 25.134626,97.894905 
	C22.526728,97.738640 19.878584,97.579964 17.115753,97.414413 
	C17.037710,101.331459 18.697615,103.756622 21.754313,102.653519 
	C24.356768,101.714355 29.140411,101.017128 27.797235,95.716980 
	C28.850775,95.718628 29.904316,95.720268 31.495905,95.917374 
	C31.677599,95.859085 31.859293,95.800789 32.876499,95.899086 
	C34.570480,95.842728 36.264465,95.786369 38.561863,95.959824 
	C39.385872,95.849869 40.209877,95.739922 41.779388,95.591331 
z"/>
<path fill="#4B6F61" opacity="1.000000" stroke="none" 
	d="
M107.572388,108.103912 
	C91.753601,108.203568 76.290146,108.106766 60.351879,108.067200 
	C59.877068,108.124435 59.893826,108.020172 59.845390,107.794067 
	C59.608799,107.293999 59.358326,107.100800 59.045540,106.988373 
	C58.821438,100.296501 58.597336,93.604630 58.451653,86.211914 
	C58.648804,85.353828 58.767540,85.196571 59.183487,85.003326 
	C61.668503,82.596436 63.856304,80.225548 66.506836,77.918060 
	C72.118942,78.073402 77.268234,78.171249 82.417740,78.255791 
	C88.712990,78.359154 89.592903,79.817657 86.539780,85.245415 
	C85.998863,86.207031 85.202515,87.024956 84.062614,88.510780 
	C82.741096,86.759689 81.914680,85.130287 80.612617,84.104836 
	C79.529678,83.251968 77.887741,83.108902 76.493416,82.651421 
	C76.292885,83.995552 75.916283,85.345673 75.961739,86.681435 
	C75.986656,87.413887 76.676994,88.154358 77.147453,88.835869 
	C79.626984,92.427780 78.040627,94.356918 74.424126,95.291817 
	C72.341133,95.830284 70.097847,95.846756 68.099983,96.574127 
	C67.135574,96.925240 65.931236,98.428780 66.005363,99.312355 
	C66.079742,100.198982 67.668312,101.712990 68.490639,101.648254 
	C71.591972,101.404137 75.253212,101.501472 77.606178,99.878334 
	C83.145767,96.056976 87.445686,98.429329 92.045998,101.616745 
	C93.336456,106.431000 95.827545,106.422089 99.408554,104.363327 
	C102.440269,102.620369 105.791489,101.433151 109.001320,100.000000 
	C108.643456,102.635818 108.285591,105.271645 107.572388,108.103912 
z"/>
<path fill="#F3F5F4" opacity="1.000000" stroke="none" 
	d="
M58.886272,85.039322 
	C58.767540,85.196571 58.648804,85.353828 58.356758,85.750397 
	C56.632938,85.883286 55.082432,85.776848 53.292404,85.821106 
	C53.052879,85.971802 52.736336,86.041367 52.701012,85.701805 
	C52.608692,84.574211 52.551689,83.786179 52.494690,82.998146 
	C52.624805,81.607994 52.754925,80.217850 53.342003,78.418503 
	C55.237888,78.320587 56.676815,78.631866 58.173737,78.835434 
	C58.231728,78.727722 58.468563,78.789124 58.382729,79.158157 
	C58.384205,79.764206 58.471516,80.001221 58.510342,80.644562 
	C58.603333,82.380363 58.744804,83.709846 58.886272,85.039322 
z"/>
<path fill="#4E7164" opacity="1.000000" stroke="none" 
	d="
M59.043304,107.271088 
	C59.358326,107.100800 59.608799,107.293999 59.897614,107.786285 
	C59.679203,107.854340 59.360138,107.704071 59.043304,107.271088 
z"/>
<path fill="#46695C" opacity="1.000000" stroke="none" 
	d="
M103.015503,2.099508 
	C104.137726,2.028990 105.259949,1.958471 106.794060,1.786355 
	C107.366463,1.813044 107.526970,1.941330 107.457611,2.476362 
	C106.150826,4.921700 105.073898,6.960290 103.996979,8.998882 
	C103.996979,8.998883 104.000000,9.000038 103.613922,9.005920 
	C100.407341,9.620976 97.162231,11.051421 97.229813,6.292356 
	C99.297386,4.794003 101.156441,3.446755 103.015503,2.099508 
M100.482788,7.587121 
	C100.482788,7.587121 100.416611,7.475616 100.482788,7.587121 
z"/>
<path fill="#4F7265" opacity="1.000000" stroke="none" 
	d="
M104.414543,8.999420 
	C105.073898,6.960290 106.150826,4.921700 107.621582,2.737338 
	C108.389877,4.461967 108.764336,6.332366 109.073090,8.601211 
	C107.615631,8.999757 106.223869,8.999859 104.414543,8.999420 
z"/>
<path fill="#4E7164" opacity="1.000000" stroke="none" 
	d="
M59.183487,85.003326 
	C58.744804,83.709846 58.603333,82.380363 58.736877,80.593216 
	C58.830788,79.686745 58.649673,79.237930 58.468563,78.789124 
	C58.468563,78.789124 58.231728,78.727722 58.270248,78.554710 
	C58.359737,77.989143 58.410713,77.596581 58.700310,77.170189 
	C59.167873,76.929077 59.396816,76.721809 59.625759,76.514534 
	C59.249653,76.272163 58.873543,76.029800 58.474941,75.344406 
	C58.487846,71.100792 58.721119,67.288994 58.506653,63.502560 
	C58.259537,59.139606 60.096329,57.775978 64.350876,57.823139 
	C75.575081,57.947548 86.803574,57.684441 98.030365,57.575623 
	C101.666252,58.120625 105.302139,58.665630 109.149162,59.564438 
	C109.284393,72.990929 109.208488,86.063606 109.066948,99.568146 
	C105.791489,101.433151 102.440269,102.620369 99.408554,104.363327 
	C95.827545,106.422089 93.336456,106.431000 92.437523,101.570480 
	C95.780922,101.152718 98.786232,101.124908 101.791550,101.097099 
	C101.911720,100.314621 102.031891,99.532135 102.152069,98.749657 
	C98.875793,97.427856 95.635696,96.005028 92.312241,94.815002 
	C89.455269,93.791985 88.702515,92.368546 90.322502,89.577049 
	C91.729515,87.152542 92.459480,84.324173 93.942093,81.958466 
	C94.880005,80.461899 96.630775,79.463745 98.052040,78.284309 
	C99.379234,77.182945 100.752747,76.137398 102.105881,75.067291 
	C100.476517,74.298508 98.883675,73.431343 97.200851,72.806549 
	C96.468544,72.534668 95.549255,72.720886 94.718658,72.766975 
	C90.571304,72.997101 86.476669,73.295235 86.346992,67.243683 
	C86.331299,66.511055 84.840698,65.254776 84.025261,65.247971 
	C83.180153,65.240929 81.611320,66.433403 81.585739,67.145325 
	C81.361153,73.395432 76.474007,72.371750 72.708206,73.001854 
	C71.245361,73.246628 69.700226,72.969025 68.221992,73.158699 
	C65.124001,73.556190 64.113724,75.057907 66.044106,77.854660 
	C63.856304,80.225548 61.668503,82.596436 59.183487,85.003326 
z"/>
<path fill="#4B6F61" opacity="1.000000" stroke="none" 
	d="
M40.070789,39.002586 
	C36.990005,39.404350 33.902012,39.760757 30.834826,40.248100 
	C30.256819,40.339939 29.479382,40.837505 29.271606,41.343845 
	C26.978859,46.931202 22.067738,48.348385 16.854483,49.413166 
	C16.482391,49.489162 16.296263,50.475651 16.009357,51.413216 
	C12.614805,51.897415 9.220121,52.227196 5.861554,52.006741 
	C4.550889,51.920708 3.321470,50.596928 1.948331,49.450901 
	C1.932003,34.007351 2.022388,18.949814 2.192358,3.424271 
	C8.533398,2.639469 14.794853,2.322673 21.522614,2.033658 
	C21.540361,2.665129 21.043486,3.823652 20.650478,3.789427 
	C14.587132,3.261400 14.697370,7.198947 14.896482,12.080170 
	C10.881934,16.577656 8.696749,21.076849 8.675552,26.557882 
	C8.658186,31.048527 8.303312,35.559582 8.648036,40.019073 
	C8.783237,41.768101 10.416156,43.401348 11.366984,45.087326 
	C12.289449,43.409206 13.775982,41.804512 14.006148,40.036278 
	C14.379450,37.168419 14.488607,34.628593 18.257580,34.635201 
	C24.248058,34.645702 30.238716,34.617783 36.228981,34.656097 
	C39.065018,34.674232 40.671799,35.891197 40.070789,39.002586 
z"/>
<path fill="#F3F5F4" opacity="1.000000" stroke="none" 
	d="
M22.999596,57.616859 
	C21.586454,57.682178 20.173313,57.747498 18.434498,57.683758 
	C17.739088,56.106800 17.369349,54.658905 16.978903,52.847488 
	C20.336697,52.400963 23.715199,52.317963 27.450150,52.659657 
	C26.204266,54.595192 24.601931,56.106026 22.999596,57.616859 
z"/>
<path fill="#F5F7F6" opacity="1.000000" stroke="none" 
	d="
M23.455299,57.734116 
	C24.601931,56.106026 26.204266,54.595192 27.893517,52.777946 
	C29.387894,52.313568 30.795355,52.155605 32.931229,51.973656 
	C34.101345,51.879654 34.543056,51.809635 34.984764,51.739616 
	C39.236073,51.861244 43.492889,51.887505 47.737083,52.132420 
	C51.658577,52.358707 53.072327,50.483315 52.851467,46.795860 
	C52.734009,44.834766 52.846550,42.859901 52.946026,40.441860 
	C54.517216,39.992561 55.997658,39.992653 57.890884,40.422749 
	C58.481438,43.585743 58.659203,46.318733 58.836964,49.051720 
	C60.364719,50.061787 61.863884,51.891197 63.424980,51.945675 
	C71.980835,52.244236 80.551888,52.107555 89.719864,52.379745 
	C90.861641,52.520115 91.401260,52.401104 91.940880,52.282097 
	C92.686943,52.251438 93.433006,52.220779 94.588867,52.544655 
	C95.691620,52.698978 96.384567,52.498768 97.077515,52.298557 
	C98.146683,52.261620 99.215858,52.224686 100.658569,52.336662 
	C100.038361,53.961826 99.044594,55.438076 98.040596,57.244972 
	C86.803574,57.684441 75.575081,57.947548 64.350876,57.823139 
	C60.096329,57.775978 58.259537,59.139606 58.506653,63.502560 
	C58.721119,67.288994 58.487846,71.100792 58.362587,75.696053 
	C58.335720,76.728493 58.398705,76.966255 58.461685,77.204025 
	C58.410713,77.596581 58.359737,77.989143 58.212254,78.662422 
	C56.676815,78.631866 55.237888,78.320587 53.427708,78.004036 
	C52.976360,73.219925 52.685780,68.432549 52.879139,63.664799 
	C53.050678,59.435169 51.577019,57.700649 47.181717,57.835999 
	C39.432003,58.074646 31.668648,57.870270 23.455299,57.734116 
z"/>
<path fill="#CED7D3" opacity="1.000000" stroke="none" 
	d="
M107.229446,52.416992 
	C107.490204,51.845505 107.939323,51.474194 108.674210,51.019814 
	C108.445923,51.496887 107.931870,52.057026 107.229446,52.416992 
z"/>
<path fill="#4F7265" opacity="1.000000" stroke="none" 
	d="
M102.586288,2.063949 
	C101.156441,3.446755 99.297386,4.794003 97.229813,6.292356 
	C97.162231,11.051421 100.407341,9.620976 103.613464,9.004358 
	C100.066330,14.568783 95.758316,15.580234 92.162323,11.533764 
	C91.101028,10.339520 90.040657,8.199170 90.425606,6.931351 
	C90.809105,5.668270 92.986557,4.922999 94.418854,4.016104 
	C95.183334,3.532051 96.035278,3.186138 96.918442,2.418777 
	C98.711777,2.049246 100.434425,2.038818 102.586288,2.063949 
z"/>
<path fill="#F0F3F2" opacity="1.000000" stroke="none" 
	d="
M75.125320,14.061884 
	C76.921890,14.061964 78.250519,14.043694 79.578499,14.065334 
	C88.492393,14.210597 91.138527,16.999636 92.450806,28.337769 
	C93.853470,27.344791 94.844292,26.274948 96.053116,25.890415 
	C97.281525,25.499651 98.724892,25.784611 100.074120,25.773661 
	C99.941673,27.093100 100.296211,28.828548 99.588715,29.656736 
	C97.116318,32.550869 94.479004,35.397434 91.466431,37.685501 
	C90.429909,38.472744 87.673027,38.177261 86.465630,37.311504 
	C83.935921,35.497585 81.668533,33.161606 79.784470,30.668858 
	C78.830803,29.407091 78.945816,27.337608 78.577660,25.633312 
	C80.183342,25.957434 81.817986,26.184286 83.381523,26.649918 
	C84.081375,26.858339 84.638618,27.545622 85.360497,28.091089 
	C87.137657,22.053204 85.802094,19.960749 80.241722,19.746773 
	C77.588928,19.644686 74.869041,20.064520 72.292992,19.607914 
	C70.496338,19.289452 68.892441,17.883595 67.202438,16.963463 
	C68.857109,15.998387 70.462852,14.928733 72.190773,14.120208 
	C72.872658,13.801147 73.826866,14.064076 75.125320,14.061884 
z"/>
<path fill="#5E7E72" opacity="1.000000" stroke="none" 
	d="
M59.159370,48.777519 
	C58.659203,46.318733 58.481438,43.585743 58.220367,40.424477 
	C58.243378,38.572556 58.349686,37.148914 58.642197,35.339302 
	C59.046192,39.469994 59.263985,43.986652 59.159370,48.777519 
z"/>
<path fill="#CED7D3" opacity="1.000000" stroke="none" 
	d="
M96.724548,52.158169 
	C96.384567,52.498768 95.691620,52.698978 94.955383,52.620049 
	C95.398590,52.233196 95.885086,52.125488 96.724548,52.158169 
z"/>
<path fill="#CED7D3" opacity="1.000000" stroke="none" 
	d="
M91.809753,52.086578 
	C91.401260,52.401104 90.861641,52.520115 90.187927,52.441742 
	C90.595436,52.126595 91.137039,52.008827 91.809753,52.086578 
z"/>
<path fill="#F0F3F2" opacity="1.000000" stroke="none" 
	d="
M40.172134,39.297783 
	C40.671799,35.891197 39.065018,34.674232 36.228981,34.656097 
	C30.238716,34.617783 24.248058,34.645702 18.257580,34.635201 
	C14.488607,34.628593 14.379450,37.168419 14.006148,40.036278 
	C13.775982,41.804512 12.289449,43.409206 11.366984,45.087326 
	C10.416156,43.401348 8.783237,41.768101 8.648036,40.019073 
	C8.303312,35.559582 8.658186,31.048527 8.675552,26.557882 
	C8.696749,21.076849 10.881934,16.577656 14.922281,12.531735 
	C21.931744,7.791427 29.132378,6.104733 36.573845,10.463251 
	C43.908043,14.758940 46.420822,21.663120 46.076820,29.891420 
	C45.917839,33.694023 46.108063,37.510891 45.962635,41.314507 
	C45.856255,44.096672 44.778450,45.891438 41.207481,43.883423 
	C40.294250,42.751865 39.719936,42.159573 39.145622,41.567284 
	C39.521576,40.909180 39.897530,40.251080 40.172134,39.297783 
M19.001801,28.984331 
	C24.300692,28.985405 29.600031,29.029957 34.898342,28.975126 
	C40.028614,28.922037 41.345547,26.934660 39.581589,22.082390 
	C37.648342,16.764444 32.600842,13.412028 26.828503,13.612127 
	C20.917946,13.817018 16.109577,17.761347 14.575108,23.470276 
	C13.697411,26.735706 14.598355,28.645178 19.001801,28.984331 
z"/>
<path fill="#46695C" opacity="1.000000" stroke="none" 
	d="
M34.991817,51.393639 
	C34.543056,51.809635 34.101345,51.879654 33.337616,51.841125 
	C32.283890,49.139496 31.552179,46.546421 30.573242,43.077190 
	C32.714321,43.699627 34.831573,44.315136 36.948830,44.930649 
	C36.298843,46.969654 35.648857,49.008659 34.991817,51.393639 
z"/>
<path fill="#547669" opacity="1.000000" stroke="none" 
	d="
M39.121735,41.925865 
	C39.719936,42.159573 40.294250,42.751865 40.893578,43.672752 
	C40.311672,43.429050 39.704758,42.856747 39.121735,41.925865 
z"/>
<path fill="#F0F3F2" opacity="1.000000" stroke="none" 
	d="
M37.958447,95.730011 
	C36.264465,95.786369 34.570480,95.842728 32.444359,95.587769 
	C31.844723,95.038147 31.677225,94.799858 31.509726,94.561562 
	C31.325768,94.948341 31.141809,95.335121 30.957853,95.721909 
	C29.904316,95.720268 28.850775,95.718628 27.142836,95.589249 
	C26.071890,95.387581 25.655342,95.313652 25.238796,95.239723 
	C22.624456,91.147598 20.010117,87.055473 17.449862,83.048004 
	C16.096869,83.295753 12.095621,84.894463 11.424246,83.998367 
	C8.806552,80.504463 13.033350,78.965607 14.849976,77.101822 
	C22.616833,69.133301 21.197029,68.653221 29.440498,77.221489 
	C31.162327,79.011162 31.920013,81.728424 33.122002,84.018234 
	C30.686642,83.725166 28.251284,83.432106 25.575293,83.110085 
	C23.920630,87.527222 25.354429,89.943016 30.776424,90.301727 
	C32.595901,90.422089 34.420876,90.459335 36.685226,90.876427 
	C37.407761,91.062096 37.688412,90.905914 37.969067,90.749733 
	C39.056644,90.725830 40.144222,90.701935 41.655396,91.126923 
	C42.687756,92.055954 43.296520,92.536095 43.905281,93.016235 
	C43.196648,93.874596 42.488018,94.732964 41.401375,95.246750 
	C40.527985,94.406578 40.032604,93.910988 39.537224,93.415390 
	C39.010963,94.186928 38.484707,94.958473 37.958447,95.730011 
z"/>
<path fill="#46695C" opacity="1.000000" stroke="none" 
	d="
M25.186710,95.585045 
	C25.655342,95.313652 26.071890,95.387581 26.749584,95.647369 
	C29.140411,101.017128 24.356768,101.714355 21.754313,102.653519 
	C18.697615,103.756622 17.037710,101.331459 17.115753,97.414413 
	C19.878584,97.579964 22.526728,97.738640 25.134626,97.894905 
	C25.134626,97.534111 25.134626,96.732239 25.186710,95.585045 
z"/>
<path fill="#46695C" opacity="1.000000" stroke="none" 
	d="
M52.185493,82.939056 
	C52.551689,83.786179 52.608692,84.574211 52.544083,85.742218 
	C52.097248,86.178795 51.756901,86.327179 51.449329,86.276535 
	C49.881359,86.018341 48.282818,85.817055 46.806931,85.285179 
	C46.614124,85.215698 47.027077,82.473709 47.226559,82.464760 
	C48.767155,82.395607 50.324287,82.694878 52.185493,82.939056 
z"/>
<path fill="#DAE0DE" opacity="1.000000" stroke="none" 
	d="
M38.260155,95.844917 
	C38.484707,94.958473 39.010963,94.186928 39.537224,93.415390 
	C40.032604,93.910988 40.527985,94.406578 41.028625,95.266068 
	C40.209877,95.739922 39.385872,95.849869 38.260155,95.844917 
z"/>
<path fill="#DAE0DE" opacity="1.000000" stroke="none" 
	d="
M43.952072,92.680634 
	C43.296520,92.536095 42.687756,92.055954 42.046139,91.256622 
	C42.675140,91.406639 43.336998,91.875839 43.952072,92.680634 
z"/>
<path fill="#DAE0DE" opacity="1.000000" stroke="none" 
	d="
M31.226879,95.819641 
	C31.141809,95.335121 31.325768,94.948341 31.509726,94.561562 
	C31.677225,94.799858 31.844723,95.038147 32.026604,95.509460 
	C31.859293,95.800789 31.677599,95.859085 31.226879,95.819641 
z"/>
<path fill="#DAE0DE" opacity="1.000000" stroke="none" 
	d="
M37.734180,90.665878 
	C37.688412,90.905914 37.407761,91.062096 37.077602,90.981979 
	C37.028095,90.745689 37.499294,90.582024 37.734180,90.665878 
z"/>
<path fill="#F3F5F4" opacity="1.000000" stroke="none" 
	d="
M66.506836,77.918060 
	C64.113724,75.057907 65.124001,73.556190 68.221992,73.158699 
	C69.700226,72.969025 71.245361,73.246628 72.708206,73.001854 
	C76.474007,72.371750 81.361153,73.395432 81.585739,67.145325 
	C81.611320,66.433403 83.180153,65.240929 84.025261,65.247971 
	C84.840698,65.254776 86.331299,66.511055 86.346992,67.243683 
	C86.476669,73.295235 90.571304,72.997101 94.718658,72.766975 
	C95.549255,72.720886 96.468544,72.534668 97.200851,72.806549 
	C98.883675,73.431343 100.476517,74.298508 102.105881,75.067291 
	C100.752747,76.137398 99.379234,77.182945 98.052040,78.284309 
	C96.630775,79.463745 94.880005,80.461899 93.942093,81.958466 
	C92.459480,84.324173 91.729515,87.152542 90.322502,89.577049 
	C88.702515,92.368546 89.455269,93.791985 92.312241,94.815002 
	C95.635696,96.005028 98.875793,97.427856 102.152069,98.749657 
	C102.031891,99.532135 101.911720,100.314621 101.791550,101.097099 
	C98.786232,101.124908 95.780922,101.152718 92.384079,101.226799 
	C87.445686,98.429329 83.145767,96.056976 77.606178,99.878334 
	C75.253212,101.501472 71.591972,101.404137 68.490639,101.648254 
	C67.668312,101.712990 66.079742,100.198982 66.005363,99.312355 
	C65.931236,98.428780 67.135574,96.925240 68.099983,96.574127 
	C70.097847,95.846756 72.341133,95.830284 74.424126,95.291817 
	C78.040627,94.356918 79.626984,92.427780 77.147453,88.835869 
	C76.676994,88.154358 75.986656,87.413887 75.961739,86.681435 
	C75.916283,85.345673 76.292885,83.995552 76.493416,82.651421 
	C77.887741,83.108902 79.529678,83.251968 80.612617,84.104836 
	C81.914680,85.130287 82.741096,86.759689 84.062614,88.510780 
	C85.202515,87.024956 85.998863,86.207031 86.539780,85.245415 
	C89.592903,79.817657 88.712990,78.359154 82.417740,78.255791 
	C77.268234,78.171249 72.118942,78.073402 66.506836,77.918060 
z"/>
<path fill="#8FA59D" opacity="1.000000" stroke="none" 
	d="
M58.382729,79.158157 
	C58.649673,79.237930 58.830788,79.686745 58.785362,80.186897 
	C58.471516,80.001221 58.384205,79.764206 58.382729,79.158157 
z"/>
<path fill="#4F7265" opacity="1.000000" stroke="none" 
	d="
M100.449699,7.531368 
	C100.416611,7.475616 100.482788,7.587121 100.449699,7.531368 
z"/>
<path fill="#8FA59D" opacity="1.000000" stroke="none" 
	d="
M58.700310,77.170189 
	C58.398705,76.966255 58.335720,76.728493 58.385086,76.139076 
	C58.873543,76.029800 59.249653,76.272163 59.625759,76.514534 
	C59.396816,76.721809 59.167873,76.929077 58.700310,77.170189 
z"/>
<path fill="#4F7265" opacity="1.000000" stroke="none" 
	d="
M18.561005,28.978596 
	C14.598355,28.645178 13.697411,26.735706 14.575108,23.470276 
	C16.109577,17.761347 20.917946,13.817018 26.828503,13.612127 
	C32.600842,13.412028 37.648342,16.764444 39.581589,22.082390 
	C41.345547,26.934660 40.028614,28.922037 34.898342,28.975126 
	C29.600031,29.029957 24.300692,28.985405 18.561005,28.978596 
z"/>
</svg>